<svg width="25" height="26" viewBox="0 0 25 26" fill="none" xmlns="http://www.w3.org/2000/svg">
<g clip-path="url(#clip0_23_224)">
<path d="M24.9599 13.08C24.9599 5.85528 19.372 -0.0012207 12.4799 -0.0012207C5.58468 0.000404297 -0.00323486 5.85528 -0.00323486 13.0817C-0.00323486 19.6093 4.56133 25.0205 10.5268 26.002V16.8614H7.35997V13.0817H10.5299V10.1973C10.5299 6.91965 12.3941 5.1094 15.2442 5.1094C16.6108 5.1094 18.0382 5.36453 18.0382 5.36453V8.58203H16.4641C14.915 8.58203 14.4314 9.59116 14.4314 10.6263V13.08H17.8915L17.3393 16.8598H14.4299V26.0004C20.3953 25.0189 24.9599 19.6077 24.9599 13.08Z" fill="#E2E8E4"/>
</g>
<defs>
<clipPath id="clip0_23_224">
<rect width="24.96" height="26" fill="white"/>
</clipPath>
</defs>
</svg>
