<svg width="26" height="26" viewBox="0 0 26 26" fill="none" xmlns="http://www.w3.org/2000/svg">
<path d="M13 9.47925C12.0662 9.47925 11.1707 9.85019 10.5104 10.5105C9.85013 11.1708 9.47919 12.0663 9.47919 13.0001C9.47919 13.9339 9.85013 14.8294 10.5104 15.4897C11.1707 16.15 12.0662 16.5209 13 16.5209C13.9338 16.5209 14.8293 16.15 15.4896 15.4897C16.1499 14.8294 16.5209 13.9339 16.5209 13.0001C16.5209 12.0663 16.1499 11.1708 15.4896 10.5105C14.8293 9.85019 13.9338 9.47925 13 9.47925Z" fill="#E2E8E4"/>
<path fill-rule="evenodd" clip-rule="evenodd" d="M7.3342 3.33893C11.0999 2.92153 14.9002 2.92153 18.6659 3.33893C20.7231 3.5686 22.3817 5.18818 22.6233 7.25302C23.0698 11.0714 23.0698 14.9288 22.6233 18.7472C22.3817 20.812 20.7231 22.4316 18.6669 22.6624C14.9009 23.0799 11.1002 23.0799 7.3342 22.6624C5.27695 22.4316 3.61836 20.812 3.37678 18.7483C2.93015 14.9295 2.93015 11.0718 3.37678 7.25302C3.61836 5.18818 5.27695 3.5686 7.3342 3.33893ZM18.4167 6.5001C18.1294 6.5001 17.8538 6.61424 17.6507 6.8174C17.4475 7.02057 17.3334 7.29612 17.3334 7.58343C17.3334 7.87075 17.4475 8.1463 17.6507 8.34947C17.8538 8.55263 18.1294 8.66677 18.4167 8.66677C18.704 8.66677 18.9796 8.55263 19.1827 8.34947C19.3859 8.1463 19.5 7.87075 19.5 7.58343C19.5 7.29612 19.3859 7.02057 19.1827 6.8174C18.9796 6.61424 18.704 6.5001 18.4167 6.5001ZM7.8542 13.0001C7.8542 11.6353 8.39635 10.3265 9.36138 9.36145C10.3264 8.39642 11.6353 7.85427 13 7.85427C14.3648 7.85427 15.6737 8.39642 16.6387 9.36145C17.6037 10.3265 18.1459 11.6353 18.1459 13.0001C18.1459 14.3649 17.6037 15.6737 16.6387 16.6388C15.6737 17.6038 14.3648 18.1459 13 18.1459C11.6353 18.1459 10.3264 17.6038 9.36138 16.6388C8.39635 15.6737 7.8542 14.3649 7.8542 13.0001Z" fill="#E2E8E4"/>
</svg>
