<svg width="27" height="26" viewBox="0 0 27 26" fill="none" xmlns="http://www.w3.org/2000/svg">
<path d="M22.1825 7.24758C21.1026 7.01011 20.1257 6.43664 19.3919 5.60946C18.6582 4.78229 18.2053 3.74394 18.0983 2.64341V2.16675H14.3608V16.9759C14.3616 17.633 14.1556 18.2737 13.772 18.8072C13.3884 19.3407 12.8466 19.74 12.2235 19.9486C11.6003 20.1571 10.9274 20.1642 10.2999 19.969C9.67249 19.7738 9.12237 19.3861 8.7275 18.8609C8.37373 18.396 8.15711 17.8414 8.10212 17.2597C8.04713 16.6781 8.15598 16.0927 8.41634 15.5697C8.6767 15.0468 9.0782 14.6071 9.57543 14.3004C10.0727 13.9937 10.6458 13.8322 11.23 13.8342C11.5531 13.8324 11.8746 13.8799 12.1833 13.9751V10.1834C11.824 10.1389 11.4619 10.1208 11.1 10.1292C9.76675 10.1649 8.47283 10.5885 7.37667 11.3483C6.28052 12.1081 5.42971 13.171 4.92844 14.4069C4.42716 15.6429 4.29718 16.9982 4.55441 18.3069C4.81163 19.6155 5.4449 20.8208 6.37666 21.7751C7.33161 22.746 8.55361 23.4111 9.88741 23.6859C11.2212 23.9607 12.6066 23.8327 13.8675 23.3184C15.1285 22.804 16.2081 21.9264 16.9691 20.7971C17.7301 19.6678 18.1383 18.3377 18.1417 16.9759V9.39258C19.6491 10.4694 21.4567 11.0454 23.3092 11.0392V7.35591C22.9453 7.35742 22.5822 7.32111 22.2258 7.24758H22.1825Z" fill="#E2E8E4"/>
</svg>
