<svg width="27" height="26" viewBox="0 0 27 26" fill="none" xmlns="http://www.w3.org/2000/svg">
<g clip-path="url(#clip0_23_228)">
<path d="M26.7016 7.79999C26.7016 7.79999 26.4481 6.00762 25.6665 5.22112C24.6769 4.18599 23.5686 4.17949 23.0616 4.11937C19.4265 3.85449 13.9665 3.85449 13.9665 3.85449H13.9568C13.9568 3.85449 8.49839 3.85449 4.86164 4.11937C4.35301 4.18112 3.24639 4.18599 2.25676 5.22112C1.47514 6.00762 1.22651 7.79999 1.22651 7.79999C1.22651 7.79999 0.96814 9.90274 0.96814 12.0104V13.9815C0.96814 16.0842 1.22651 18.1919 1.22651 18.1919C1.22651 18.1919 1.48001 19.9842 2.25676 20.7724C3.24639 21.8075 4.54639 21.7734 5.12651 21.8839C7.20814 22.0821 13.9681 22.1422 13.9681 22.1422C13.9681 22.1422 19.433 22.1325 23.0681 21.8725C23.5768 21.8124 24.6834 21.8059 25.673 20.7707C26.4546 19.9842 26.7081 18.1902 26.7081 18.1902C26.7081 18.1902 26.9665 16.0875 26.9665 13.9799V12.0087C26.9616 9.90599 26.7033 7.79837 26.7033 7.79837L26.7016 7.79999ZM11.2739 16.3719V9.06424L18.2971 12.7302L11.2739 16.3719Z" fill="#E2E8E4"/>
</g>
<defs>
<clipPath id="clip0_23_228">
<rect width="26" height="26" fill="white" transform="translate(0.960022)"/>
</clipPath>
</defs>
</svg>
